<svg xmlns="http://www.w3.org/2000/svg" width="1200" height="760" viewBox="0 0 1200 760" role="img" aria-labelledby="title description">
<title id="title">Learn a color rule from examples, then apply it to a new grid</title>
<desc id="description">Two input and output examples replace every red cell with blue. A new input has a different red shape; its expected output preserves the shape and replaces red with blue. Black cells stay black. This is an illustrative puzzle.</desc>
<rect width="1200" height="760" rx="20" fill="#F3F6FA"/>
<g font-family="Arial, Helvetica, sans-serif">
<text x="48" y="62" font-size="34" fill="#172033" font-weight="bold" text-anchor="start">Discover the rule. Apply it to a new grid.</text>
<text x="48" y="100" font-size="21" fill="#52627A" font-weight="normal" text-anchor="start">An ARC task gives a few input/output examples, then asks for a new output.</text>
<rect x="48" y="140" width="536" height="270" rx="16" fill="#FFFFFF" stroke="#D8E0EB" stroke-width="2"/>
<text x="72" y="178" font-size="17" fill="#52627A" font-weight="bold" text-anchor="start">EXAMPLE 1</text>
<text x="96" y="212" font-size="18" fill="#172033" font-weight="normal" text-anchor="start">Input</text>
<text x="386" y="212" font-size="18" fill="#172033" font-weight="normal" text-anchor="start">Output</text>
<rect x="96" y="232" width="138" height="138" fill="#FFFFFF"/>
<rect x="97" y="233" width="44" height="44" fill="#111827"/>
<rect x="143" y="233" width="44" height="44" fill="#FF4136"/>
<rect x="189" y="233" width="44" height="44" fill="#111827"/>
<rect x="97" y="279" width="44" height="44" fill="#FF4136"/>
<rect x="143" y="279" width="44" height="44" fill="#FF4136"/>
<rect x="189" y="279" width="44" height="44" fill="#111827"/>
<rect x="97" y="325" width="44" height="44" fill="#111827"/>
<rect x="143" y="325" width="44" height="44" fill="#111827"/>
<rect x="189" y="325" width="44" height="44" fill="#111827"/>
<rect x="96" y="232" width="138" height="138" fill="none" stroke="#172033" stroke-width="2"/>
<rect x="270" y="299" width="57" height="4" fill="#65758D"/>
<polygon points="335,301 323,292 323,310" fill="#65758D"/>
<rect x="386" y="232" width="138" height="138" fill="#FFFFFF"/>
<rect x="387" y="233" width="44" height="44" fill="#111827"/>
<rect x="433" y="233" width="44" height="44" fill="#0074D9"/>
<rect x="479" y="233" width="44" height="44" fill="#111827"/>
<rect x="387" y="279" width="44" height="44" fill="#0074D9"/>
<rect x="433" y="279" width="44" height="44" fill="#0074D9"/>
<rect x="479" y="279" width="44" height="44" fill="#111827"/>
<rect x="387" y="325" width="44" height="44" fill="#111827"/>
<rect x="433" y="325" width="44" height="44" fill="#111827"/>
<rect x="479" y="325" width="44" height="44" fill="#111827"/>
<rect x="386" y="232" width="138" height="138" fill="none" stroke="#172033" stroke-width="2"/>
<rect x="616" y="140" width="536" height="270" rx="16" fill="#FFFFFF" stroke="#D8E0EB" stroke-width="2"/>
<text x="640" y="178" font-size="17" fill="#52627A" font-weight="bold" text-anchor="start">EXAMPLE 2</text>
<text x="664" y="212" font-size="18" fill="#172033" font-weight="normal" text-anchor="start">Input</text>
<text x="954" y="212" font-size="18" fill="#172033" font-weight="normal" text-anchor="start">Output</text>
<rect x="664" y="232" width="138" height="138" fill="#FFFFFF"/>
<rect x="665" y="233" width="44" height="44" fill="#111827"/>
<rect x="711" y="233" width="44" height="44" fill="#111827"/>
<rect x="757" y="233" width="44" height="44" fill="#FF4136"/>
<rect x="665" y="279" width="44" height="44" fill="#111827"/>
<rect x="711" y="279" width="44" height="44" fill="#FF4136"/>
<rect x="757" y="279" width="44" height="44" fill="#FF4136"/>
<rect x="665" y="325" width="44" height="44" fill="#111827"/>
<rect x="711" y="325" width="44" height="44" fill="#111827"/>
<rect x="757" y="325" width="44" height="44" fill="#FF4136"/>
<rect x="664" y="232" width="138" height="138" fill="none" stroke="#172033" stroke-width="2"/>
<rect x="838" y="299" width="57" height="4" fill="#65758D"/>
<polygon points="903,301 891,292 891,310" fill="#65758D"/>
<rect x="954" y="232" width="138" height="138" fill="#FFFFFF"/>
<rect x="955" y="233" width="44" height="44" fill="#111827"/>
<rect x="1001" y="233" width="44" height="44" fill="#111827"/>
<rect x="1047" y="233" width="44" height="44" fill="#0074D9"/>
<rect x="955" y="279" width="44" height="44" fill="#111827"/>
<rect x="1001" y="279" width="44" height="44" fill="#0074D9"/>
<rect x="1047" y="279" width="44" height="44" fill="#0074D9"/>
<rect x="955" y="325" width="44" height="44" fill="#111827"/>
<rect x="1001" y="325" width="44" height="44" fill="#111827"/>
<rect x="1047" y="325" width="44" height="44" fill="#0074D9"/>
<rect x="954" y="232" width="138" height="138" fill="none" stroke="#172033" stroke-width="2"/>
<rect x="48" y="438" width="1104" height="252" rx="16" fill="#FFFFFF" stroke="#D8E0EB" stroke-width="2"/>
<text x="72" y="476" font-size="17" fill="#52627A" font-weight="bold" text-anchor="start">NEW PUZZLE</text>
<text x="96" y="513" font-size="18" fill="#172033" font-weight="normal" text-anchor="start">New input</text>
<text x="958" y="513" font-size="18" fill="#172033" font-weight="normal" text-anchor="middle">Expected output</text>
<rect x="96" y="533" width="126" height="126" fill="#FFFFFF"/>
<rect x="97" y="534" width="40" height="40" fill="#FF4136"/>
<rect x="139" y="534" width="40" height="40" fill="#FF4136"/>
<rect x="181" y="534" width="40" height="40" fill="#111827"/>
<rect x="97" y="576" width="40" height="40" fill="#111827"/>
<rect x="139" y="576" width="40" height="40" fill="#FF4136"/>
<rect x="181" y="576" width="40" height="40" fill="#111827"/>
<rect x="97" y="618" width="40" height="40" fill="#111827"/>
<rect x="139" y="618" width="40" height="40" fill="#FF4136"/>
<rect x="181" y="618" width="40" height="40" fill="#FF4136"/>
<rect x="96" y="533" width="126" height="126" fill="none" stroke="#172033" stroke-width="2"/>
<rect x="254" y="594" width="40" height="4" fill="#65758D"/>
<polygon points="302,596 290,587 290,605" fill="#65758D"/>
<text x="342" y="571" font-size="22" fill="#172033" font-weight="bold" text-anchor="start">The shared rule</text>
<text x="342" y="606" font-size="23" fill="#172033" font-weight="normal" text-anchor="start">Turn red cells blue.</text>
<text x="342" y="639" font-size="20" fill="#52627A" font-weight="normal" text-anchor="start">Keep the shape and positions.</text>
<rect x="800" y="594" width="40" height="4" fill="#65758D"/>
<polygon points="848,596 836,587 836,605" fill="#65758D"/>
<rect x="896" y="533" width="126" height="126" fill="#FFFFFF"/>
<rect x="897" y="534" width="40" height="40" fill="#0074D9"/>
<rect x="939" y="534" width="40" height="40" fill="#0074D9"/>
<rect x="981" y="534" width="40" height="40" fill="#111827"/>
<rect x="897" y="576" width="40" height="40" fill="#111827"/>
<rect x="939" y="576" width="40" height="40" fill="#0074D9"/>
<rect x="981" y="576" width="40" height="40" fill="#111827"/>
<rect x="897" y="618" width="40" height="40" fill="#111827"/>
<rect x="939" y="618" width="40" height="40" fill="#0074D9"/>
<rect x="981" y="618" width="40" height="40" fill="#0074D9"/>
<rect x="896" y="533" width="126" height="126" fill="none" stroke="#172033" stroke-width="2"/>
<text x="48" y="732" font-size="17" fill="#52627A" font-weight="normal" text-anchor="start">Illustrative puzzle</text>
<text x="1152" y="732" font-size="17" fill="#52627A" font-weight="normal" text-anchor="end">Color IDs: black = 0   red = 2   blue = 1</text>
</g>
</svg>
